<svg xmlns="http://www.w3.org/2000/svg" width="19.685" height="21.916" viewBox="0 0 19.685 21.916">
  <g id="author-sign" transform="translate(-49.06)">
    <path id="Path_4" data-name="Path 4" d="M91.026,848.408l-.232.042c-5.248.941-6.214,1.1-6.322,1.115a1.163,1.163,0,0,1-.59-.046.35.35,0,0,1-.146-.105.934.934,0,0,1,.08-.176c.027-.051.059-.11.086-.172a.851.851,0,0,0-.33-1.091,1.717,1.717,0,0,0-1.129-.235c-.276.023-5.12.835-7.78,1.283l-1.306,1.027c3.045-.514,8.847-1.487,9.153-1.517a.982.982,0,0,1,.615.1c.075.051.068.068.048.114s-.036.074-.059.117a1.06,1.06,0,0,0-.167.664.964.964,0,0,0,.614.719,1.662,1.662,0,0,0,.678.129,2.815,2.815,0,0,0,.325-.02c.209-.024,2.352-.4,6.371-1.122l.231-.041a.4.4,0,0,0-.139-.783Z" transform="translate(-23.744 -828.458)" fill="#646464"/>
    <path id="Path_5" data-name="Path 5" d="M53.2,16.083,49.82,19.618a3.042,3.042,0,0,0-.76,1.394l4.8-3.774a8.984,8.984,0,0,0,3.622.878,3.73,3.73,0,0,0,2.366-.655,3.277,3.277,0,0,1-1.718-2.243,31.374,31.374,0,0,0,3.552,1.061c3.187-2.127,4.852-6.732,4.852-6.732a3.543,3.543,0,0,1-.943.128,4.018,4.018,0,0,1-2.523-.958l4.163-.907C68.613,4.972,68.745,0,68.745,0L56.087,11.258A9.377,9.377,0,0,0,53.2,16.083Z" fill="#646464"/>
  </g>
</svg>
