<svg xmlns="http://www.w3.org/2000/svg" width="22.375" height="22.699" viewBox="0 0 22.375 22.699">
  <g id="icon" transform="translate(-0.208)">
    <path id="Path_1" data-name="Path 1" d="M21.261,4.791a1.571,1.571,0,0,0,1.575-1.571V1.575a1.574,1.574,0,1,0-3.148,0V3.22A1.57,1.57,0,0,0,21.261,4.791Z" transform="translate(-4.296)" fill="#646464"/>
    <path id="Path_2" data-name="Path 2" d="M22.559,3.483H19.389v.8a2.4,2.4,0,1,1-4.793,0v-.8H8.2v.8a2.4,2.4,0,1,1-4.795,0v-.8l-3.2-.04V23.458H20.986l1.6,0ZM20.984,21.864H1.807V9.078H20.986V21.864Z" transform="translate(0 -0.759)" fill="#646464"/>
    <path id="Path_3" data-name="Path 3" d="M6.909,4.791A1.571,1.571,0,0,0,8.484,3.219V1.575a1.574,1.574,0,1,0-3.148,0V3.22A1.569,1.569,0,0,0,6.909,4.791Z" transform="translate(-1.131)" fill="#646464"/>
    <rect id="Rectangle_12" data-name="Rectangle 12" width="2.518" height="2.223" transform="translate(8.205 10.034)" fill="#646464"/>
    <rect id="Rectangle_13" data-name="Rectangle 13" width="2.521" height="2.223" transform="translate(12.277 10.034)" fill="#646464"/>
    <rect id="Rectangle_14" data-name="Rectangle 14" width="2.518" height="2.223" transform="translate(16.054 10.034)" fill="#646464"/>
    <rect id="Rectangle_15" data-name="Rectangle 15" width="2.518" height="2.222" transform="translate(8.205 13.726)" fill="#646464"/>
    <rect id="Rectangle_16" data-name="Rectangle 16" width="2.521" height="2.222" transform="translate(12.277 13.726)" fill="#646464"/>
    <rect id="Rectangle_17" data-name="Rectangle 17" width="2.518" height="2.222" transform="translate(16.054 13.726)" fill="#646464"/>
    <rect id="Rectangle_18" data-name="Rectangle 18" width="2.518" height="2.222" transform="translate(8.205 17.491)" fill="#646464"/>
    <rect id="Rectangle_19" data-name="Rectangle 19" width="2.517" height="2.222" transform="translate(4.205 13.726)" fill="#646464"/>
    <rect id="Rectangle_20" data-name="Rectangle 20" width="2.517" height="2.222" transform="translate(4.205 17.491)" fill="#646464"/>
    <rect id="Rectangle_21" data-name="Rectangle 21" width="2.521" height="2.222" transform="translate(12.277 17.491)" fill="#646464"/>
    <rect id="Rectangle_22" data-name="Rectangle 22" width="2.518" height="2.222" transform="translate(16.054 17.491)" fill="#646464"/>
  </g>
</svg>
