<svg id="list" xmlns="http://www.w3.org/2000/svg" width="22.251" height="17.701" viewBox="0 0 22.251 17.701">
  <path id="Path_11" data-name="Path 11" d="M0,4.924H4.924V0H0ZM1.3,1.3H3.62V3.62H1.3Zm0,0" fill="#646464"/>
  <path id="Path_12" data-name="Path 12" d="M149.3,0V4.924h15.762V0Zm14.459,3.62H150.6V1.3h13.155Zm0,0" transform="translate(-142.809)" fill="#646464"/>
  <path id="Path_13" data-name="Path 13" d="M0,151.932H4.924v-4.924H0Zm1.3-3.62H3.62v2.316H1.3Zm0,0" transform="translate(0 -140.619)" fill="#646464"/>
  <path id="Path_14" data-name="Path 14" d="M149.3,151.932h15.762v-4.924H149.3Zm1.3-3.62h13.155v2.316H150.6Zm0,0" transform="translate(-142.809 -140.619)" fill="#646464"/>
  <path id="Path_15" data-name="Path 15" d="M0,298.936H4.924v-4.924H0Zm1.3-3.62H3.62v2.316H1.3Zm0,0" transform="translate(0 -281.235)" fill="#646464"/>
  <path id="Path_16" data-name="Path 16" d="M149.3,298.936h15.762v-4.924H149.3Zm1.3-3.62h13.155v2.316H150.6Zm0,0" transform="translate(-142.809 -281.235)" fill="#646464"/>
</svg>
