<svg xmlns="http://www.w3.org/2000/svg" width="16.623" height="20.468" viewBox="0 0 16.623 20.468">
  <g id="delete_1_" data-name="delete (1)" transform="translate(0.003 0.002)">
    <path id="Path_6" data-name="Path 6" d="M222.877,154.7a.479.479,0,0,0-.479.479v9.059a.479.479,0,0,0,.959,0v-9.059A.479.479,0,0,0,222.877,154.7Zm0,0" transform="translate(-211.741 -147.289)" fill="#ff4646"/>
    <path id="Path_7" data-name="Path 7" d="M104.877,154.7a.479.479,0,0,0-.479.479v9.059a.479.479,0,0,0,.959,0v-9.059A.479.479,0,0,0,104.877,154.7Zm0,0" transform="translate(-99.397 -147.289)" fill="#ff4646"/>
    <path id="Path_8" data-name="Path 8" d="M1.358,6.092V17.9a2.645,2.645,0,0,0,.7,1.824,2.36,2.36,0,0,0,1.713.741h9.069a2.36,2.36,0,0,0,1.713-.741,2.645,2.645,0,0,0,.7-1.824V6.092a1.831,1.831,0,0,0-.47-3.6H12.335v-.6A1.883,1.883,0,0,0,10.437,0H6.18a1.883,1.883,0,0,0-1.9,1.893v.6H1.828a1.831,1.831,0,0,0-.47,3.6ZM12.843,19.507H3.774A1.518,1.518,0,0,1,2.317,17.9V6.134H14.3V17.9a1.518,1.518,0,0,1-1.457,1.606ZM5.241,1.892A.923.923,0,0,1,6.18.957h4.256a.923.923,0,0,1,.94.935v.6H5.241ZM1.828,3.45H14.789a.863.863,0,1,1,0,1.726H1.828a.863.863,0,1,1,0-1.726Zm0,0" transform="translate(0 0)" fill="#ff4646"/>
    <path id="Path_9" data-name="Path 9" d="M163.877,154.7a.479.479,0,0,0-.479.479v9.059a.479.479,0,0,0,.959,0v-9.059A.479.479,0,0,0,163.877,154.7Zm0,0" transform="translate(-155.569 -147.289)" fill="#ff4646"/>
  </g>
</svg>
